<svg width="69" height="68" viewBox="0 0 69 68" fill="none" xmlns="http://www.w3.org/2000/svg">
<g id="sleepy-bedroom-svgrepo-com 1">
<g id="Group">
<g id="Group_2">
<path id="Vector" d="M51.7028 29.3257C51.1435 24.9167 47.3738 21.5919 42.9345 21.5919C42.8079 21.5919 42.6793 21.5948 42.5496 21.6007C41.6582 20.2953 40.4789 19.1984 39.1101 18.4066C37.5191 17.4865 35.7021 17 33.8554 17C32.0088 17 30.1917 17.4865 28.6007 18.4066C27.232 19.1984 26.0527 20.2953 25.1612 21.6007C25.0316 21.5948 24.9032 21.5919 24.7764 21.5919C20.335 21.5919 16.5653 24.9185 16.0076 29.3297C15.9731 29.6035 16.0575 29.8789 16.2396 30.086C16.4216 30.2928 16.6836 30.4115 16.959 30.4115C16.9759 30.4115 16.9933 30.411 17.0108 30.4101C17.0527 30.4082 17.0944 30.408 17.1366 30.4074C17.8207 30.4074 18.4692 30.6784 18.9642 31.1714C19.4847 31.6899 19.772 32.381 19.7734 33.1191L19.7765 34.0456C18.8683 34.6761 18.2718 35.7272 18.2718 36.9159V40.9022V45.7837C18.2718 46.3143 18.7012 46.7448 19.2308 46.7448H20.8403L19.3759 48.4018C19.0248 48.7991 19.0615 49.4064 19.458 49.7584C19.8544 50.1102 20.4604 50.0735 20.8117 49.6761L23.4024 46.7448H44.3082L46.8989 49.6761C47.0884 49.8905 47.3522 50 47.6171 50C47.843 50 48.0701 49.9205 48.2525 49.7584C48.649 49.4064 48.6858 48.7991 48.3346 48.4018L46.8701 46.7448H48.4798C49.0094 46.7448 49.4388 46.3144 49.4388 45.7837V40.9022V36.9159C49.4388 35.7875 48.9013 34.7831 48.0698 34.1447L48.0732 33.1175C48.0747 32.381 48.362 31.6898 48.8825 31.1714C49.3773 30.6785 50.0258 30.4074 50.7137 30.4074C51.0058 30.4176 51.2807 30.2988 51.471 30.0822C51.6531 29.875 51.7375 29.5994 51.7028 29.3257ZM36.7323 36.8818H20.1914C20.2097 36.0331 20.9029 35.348 21.7541 35.348H21.7583H32.4686H35.2422H45.9522H45.9564C46.8191 35.348 47.5209 36.0513 47.5209 36.9157V39.9411H20.1895V38.8039H36.7322C37.2618 38.8039 37.6912 38.3735 37.6912 37.8428C37.6912 37.3121 37.2618 36.8818 36.7323 36.8818ZM31.5095 33.4258H22.7172V33.1858C22.7172 31.7059 23.9188 30.5016 25.3957 30.5016H28.831C30.3079 30.5016 31.5095 31.7057 31.5095 33.1858L31.5095 33.4258ZM36.201 33.4258V33.1858C36.201 31.7059 37.4025 30.5016 38.8795 30.5016H42.3148C43.7916 30.5016 44.9933 31.7057 44.9933 33.1858V33.4258H36.201ZM47.5209 44.8226H44.7398H22.9707H20.1897V41.8632H47.5209V44.8226ZM47.5305 29.8079C47.0896 30.247 46.7473 30.759 46.5144 31.3168C45.7976 29.7057 44.1856 28.5795 42.3147 28.5795H38.8794C36.3449 28.5795 34.283 30.6458 34.283 33.1857V33.4257H33.4274V33.1857C33.4274 30.6458 31.3654 28.5795 28.8309 28.5795H25.3957C23.5835 28.5795 22.0134 29.6363 21.2654 31.1669C21.0356 30.6673 20.7171 30.2074 20.3163 29.8081C19.696 29.1901 18.9335 28.7736 18.107 28.5907C18.9252 25.6367 21.6364 23.5138 24.7764 23.5138C25.0266 23.5138 25.2874 23.5287 25.5515 23.5582C25.9241 23.5995 26.2854 23.4206 26.4787 23.0996C28.0539 20.4837 30.8115 18.9219 33.8555 18.9219C36.8995 18.9219 39.6572 20.4837 41.2323 23.0996C41.4256 23.4207 41.788 23.5992 42.1595 23.5582C42.4237 23.5287 42.6845 23.5138 42.9347 23.5138C46.0849 23.5138 48.8043 25.6512 49.6124 28.621C48.8348 28.8173 48.1187 29.2221 47.5305 29.8079Z" fill="#141414"/>
</g>
</g>
</g>
</svg>
