<svg width="69" height="68" viewBox="0 0 69 68" fill="none" xmlns="http://www.w3.org/2000/svg">
<g id="Frame 2147228100">
<path id="Vector" d="M50.4238 34.5397C50.4221 32.8446 50.0046 31.1847 49.2195 29.752C48.4344 28.3193 47.3138 27.1723 45.9874 26.4437L45.9873 24.9417C45.9878 23.2917 45.5275 21.6855 44.6747 20.3611C43.8219 19.0367 42.622 18.0647 41.2527 17.589C39.8835 17.1134 38.4179 17.1595 37.0731 17.7205C35.7284 18.2815 34.5761 19.3276 33.7871 20.7036C32.9981 19.3276 31.8458 18.2815 30.501 17.7205C29.1563 17.1595 27.6907 17.1134 26.3215 17.589C24.9522 18.0647 23.7523 19.0367 22.8994 20.3611C22.0466 21.6854 21.5863 23.2916 21.5868 24.9416L21.5868 26.4437C20.2593 27.1703 19.1378 28.3166 18.3525 29.7493C17.5672 31.1821 17.1504 32.8425 17.1504 34.5378C17.1504 36.233 17.5673 37.8935 18.3526 39.3262C19.1379 40.759 20.2594 41.9053 21.5868 42.6318V42.8581C21.5863 44.508 22.0466 46.1142 22.8994 47.4386C23.7522 48.763 24.9522 49.735 26.3214 50.2107C27.6907 50.6863 29.1563 50.6402 30.501 50.0792C31.8458 49.5182 32.9981 48.4722 33.7871 47.0961C34.5761 48.4722 35.7284 49.5182 37.0731 50.0792C38.4179 50.6402 39.8835 50.6863 41.2527 50.2107C42.622 49.735 43.8219 48.763 44.6747 47.4386C45.5275 46.1142 45.9878 44.508 45.9873 42.8581V42.6318C47.3138 41.9044 48.4346 40.7582 49.2197 39.3261C50.0049 37.8939 50.4224 36.2344 50.4238 34.5397ZM28.2415 47.9771C27.148 47.9754 26.0934 47.5085 25.2796 46.6656C24.4659 45.8228 23.9501 44.6632 23.8311 43.4089C24.1899 43.4676 24.5518 43.4974 24.9142 43.4979H26.0233C26.3174 43.4979 26.5995 43.3631 26.8075 43.1231C27.0155 42.8831 27.1324 42.5576 27.1324 42.2182C27.1324 41.8788 27.0155 41.5533 26.8075 41.3133C26.5995 41.0733 26.3174 40.9385 26.0233 40.9385H24.9142C23.6059 40.9381 22.3399 40.4043 21.3397 39.4312C20.3396 38.4581 19.6697 37.1084 19.4485 35.6206C19.2273 34.1328 19.469 32.6026 20.1308 31.3005C20.7927 29.9984 21.8321 29.0082 23.0655 28.5048C23.2817 28.4166 23.469 28.2532 23.6014 28.0371C23.7338 27.8211 23.8049 27.5629 23.8049 27.2983L23.8051 24.9417C23.8051 23.584 24.2725 22.282 25.1045 21.322C25.9365 20.362 27.0649 19.8227 28.2415 19.8227C29.4181 19.8227 30.5466 20.362 31.3786 21.322C32.2105 22.282 32.678 23.584 32.678 24.9417V37.1411C31.46 35.8771 29.8796 35.1783 28.2415 35.1796C27.9474 35.1796 27.6652 35.3144 27.4572 35.5544C27.2493 35.7944 27.1324 36.1199 27.1324 36.4594C27.1324 36.7988 27.2493 37.1243 27.4572 37.3643C27.6652 37.6043 27.9474 37.7391 28.2415 37.7391C29.4181 37.7391 30.5466 38.2784 31.3786 39.2384C32.2105 40.1984 32.678 41.5004 32.678 42.8581C32.678 44.2157 32.2105 45.5177 31.3786 46.4777C30.5466 47.4377 29.4181 47.9771 28.2415 47.9771ZM42.66 40.9385H41.5509C41.2567 40.9385 40.9746 41.0733 40.7666 41.3133C40.5586 41.5533 40.4417 41.8788 40.4417 42.2182C40.4417 42.5576 40.5586 42.8831 40.7666 43.1231C40.9746 43.3631 41.2567 43.4979 41.5509 43.4979H42.66C43.0223 43.4974 43.3842 43.4676 43.743 43.4089C43.6508 44.3921 43.3137 45.3234 42.7725 46.0902C42.2313 46.857 41.5092 47.4265 40.6934 47.7299C39.8777 48.0333 39.0033 48.0575 38.1758 47.7997C37.3484 47.5419 36.6034 47.013 36.031 46.2771C35.4585 45.5411 35.083 44.6296 34.95 43.6526C34.8169 42.6757 34.9319 41.6752 35.2812 40.7721C35.6304 39.869 36.1989 39.102 36.9179 38.5637C37.6368 38.0255 38.4756 37.7391 39.3326 37.7391C39.6268 37.7391 39.9089 37.6043 40.1169 37.3643C40.3249 37.1243 40.4417 36.7988 40.4417 36.4594C40.4417 36.1199 40.3249 35.7944 40.1169 35.5544C39.9089 35.3144 39.6268 35.1796 39.3326 35.1796C37.6945 35.1783 36.1141 35.8771 34.8962 37.1411V24.9417C34.8962 23.584 35.3636 22.282 36.1956 21.322C37.0276 20.362 38.156 19.8227 39.3327 19.8227C40.5093 19.8227 41.6377 20.3621 42.4697 21.3221C43.3017 22.2821 43.7691 23.5841 43.7691 24.9417L43.7692 27.2983C43.7692 27.5629 43.8403 27.8211 43.9728 28.0371C44.1052 28.2532 44.2924 28.4166 44.5086 28.5048C45.742 29.0082 46.7815 29.9985 47.4433 31.3006C48.1052 32.6027 48.3469 34.1328 48.1257 35.6206C47.9044 37.1084 47.2346 38.4581 46.2344 39.4312C45.2343 40.4043 43.9682 40.9381 42.66 40.9385ZM24.3596 33.8999C24.0655 33.8999 23.7834 33.765 23.5754 33.525C23.3674 33.285 23.2505 32.9595 23.2505 32.6201C23.2505 32.2807 23.3674 31.9552 23.5754 31.7152C23.7834 31.4752 24.0655 31.3404 24.3596 31.3404C25.0948 31.3394 25.7995 31.002 26.3194 30.4022C26.8392 29.8025 27.1316 28.9892 27.1324 28.141V26.8613C27.1324 26.5219 27.2493 26.1964 27.4572 25.9564C27.6652 25.7164 27.9474 25.5815 28.2415 25.5815C28.5357 25.5815 28.8178 25.7164 29.0258 25.9564C29.2338 26.1964 29.3506 26.5219 29.3506 26.8613V28.141C29.3491 29.6678 28.8228 31.1316 27.8871 32.2112C26.9515 33.2909 25.6829 33.8981 24.3596 33.8999ZM44.3236 32.6201C44.3236 32.9595 44.2068 33.285 43.9988 33.525C43.7908 33.765 43.5087 33.8999 43.2145 33.8999C41.8913 33.8981 40.6227 33.2909 39.687 32.2112C38.7513 31.1316 38.225 29.6678 38.2235 28.141V26.8613C38.2235 26.5219 38.3404 26.1964 38.5484 25.9564C38.7564 25.7164 39.0385 25.5815 39.3326 25.5815C39.6268 25.5815 39.9089 25.7164 40.1169 25.9564C40.3249 26.1964 40.4417 26.5219 40.4417 26.8613V28.141C40.4426 28.9892 40.735 29.8025 41.2548 30.4022C41.7746 31.002 42.4794 31.3394 43.2145 31.3404C43.5087 31.3404 43.7908 31.4752 43.9988 31.7152C44.2068 31.9552 44.3236 32.2807 44.3236 32.6201Z" fill="black"/>
</g>
</svg>
