<svg width="67" height="68" viewBox="0 0 67 68" fill="none" xmlns="http://www.w3.org/2000/svg">
<g id="iconoir:health-shield">
<g id="Group">
<path id="Vector" d="M36.8934 40.6693H31.2373V36.7113H27.2793V31.0551H31.2373V27.0972H36.8934V31.0551H40.8514V36.7113H36.8934V40.6693Z" stroke="black" stroke-width="1.5" stroke-linecap="round" stroke-linejoin="round"/>
<path id="Vector_2" d="M22.1895 44.0622L19.017 21.8599C18.9566 21.4373 19.0585 21.0075 19.3021 20.6569C19.5457 20.3063 19.9129 20.0609 20.3301 19.97L33.3288 17.0809C33.8137 16.973 34.3164 16.973 34.8013 17.0809L47.8 19.9717C48.6653 20.1634 49.2387 20.9828 49.1131 21.8616L45.9406 44.0622C45.8219 44.902 45.0924 50 34.0651 50C23.0377 50 22.3082 44.902 22.1895 44.0622Z" stroke="black" stroke-width="1.5" stroke-linecap="round" stroke-linejoin="round"/>
</g>
</g>
</svg>
