<svg width="67" height="67" viewBox="0 0 67 67" fill="none" xmlns="http://www.w3.org/2000/svg">
<g id="female-svgrepo-com 1">
<path id="Vector" d="M30.3818 24.9463H37.8867C38.02 24.9464 38.1521 24.9689 38.2773 25.0127L38.4004 25.0645C38.5208 25.1224 38.6305 25.1999 38.7246 25.2939L38.8135 25.3926V25.3936L46.3184 34.7744C46.4906 34.9896 46.5823 35.2571 46.5791 35.5303L46.5713 35.6475C46.5409 35.9214 46.4171 36.1753 46.2217 36.3662L46.1338 36.4434C45.888 36.6401 45.5737 36.7319 45.2607 36.6973C44.9477 36.6625 44.6607 36.5047 44.4639 36.2588H44.4648L39.0645 29.5049L37.8623 30.1191L40.7314 40.4541H38.1357V52.4004C38.1357 52.7152 38.0107 53.0176 37.7881 53.2402C37.5655 53.4628 37.2631 53.5879 36.9482 53.5879C36.6728 53.5878 36.4075 53.4915 36.1963 53.3184L36.1094 53.2402C35.8868 53.0176 35.7617 52.7152 35.7617 52.4004V40.4541H32.5068V52.4004C32.5068 52.6759 32.4114 52.9421 32.2383 53.1533L32.1592 53.2402C31.9366 53.4628 31.6341 53.5879 31.3193 53.5879C31.0439 53.5878 30.7785 53.4915 30.5674 53.3184L30.4805 53.2402C30.2579 53.0176 30.1328 52.7152 30.1328 52.4004V40.4541H27.5361L30.4062 30.1172L29.2031 29.5029L23.8037 36.2568C23.6316 36.4718 23.391 36.6189 23.124 36.6758L23.0078 36.6953C22.734 36.7257 22.4595 36.6594 22.2305 36.5107L22.1348 36.4414C22.0131 36.344 21.9121 36.2235 21.8369 36.0869C21.7805 35.9845 21.739 35.8747 21.7148 35.7607L21.6963 35.6455C21.6834 35.5294 21.6877 35.4123 21.709 35.2979L21.7363 35.1836C21.7689 35.0714 21.8174 34.9647 21.8809 34.8672L21.9492 34.7725L29.4541 25.3916C29.5376 25.2873 29.6383 25.1985 29.751 25.1279L29.8672 25.0635C29.9874 25.0058 30.1162 24.969 30.248 24.9541L30.3818 24.9463ZM34.1338 13.6895C35.1287 13.6895 36.0853 14.06 36.8193 14.7246L36.9639 14.8613C37.7141 15.6117 38.1357 16.6294 38.1357 17.6904V21.6914H30.1328V17.6904C30.1328 16.6955 30.5033 15.7389 31.168 15.0049L31.3047 14.8613C32.055 14.111 33.0727 13.6895 34.1338 13.6895Z" stroke="black" stroke-width="1.37845"/>
</g>
</svg>
