<svg width="68" height="68" viewBox="0 0 68 68" fill="none" xmlns="http://www.w3.org/2000/svg">
<g id="Frame 2147228100">
<g id="Group 427323615">
<path id="Vector" d="M45.3162 17.7103C45.9122 17.1142 46.8787 17.1142 47.4748 17.7103L49.6335 19.8689C50.2296 20.465 50.2296 21.4314 49.6335 22.0275C49.0373 22.6236 48.071 22.6236 47.4748 22.0275L45.3162 19.8689C44.7201 19.2728 44.7201 18.3063 45.3162 17.7103Z" fill="#0F0F0F"/>
<path id="Vector_2" d="M39.9197 18.7893C40.5157 18.1933 41.4822 18.1933 42.0783 18.7893L48.5541 25.2652C49.1503 25.8613 49.1503 26.8277 48.5541 27.4238C47.958 28.0199 46.9915 28.0199 46.3955 27.4238L39.9197 20.948C39.3236 20.3519 39.3236 19.3854 39.9197 18.7893Z" fill="#0F0F0F"/>
<path id="Vector_3" d="M40.9988 28.5038L28.0472 41.4553L31.2851 44.6932C31.8812 45.2892 31.8812 46.2557 31.2851 46.8518C30.6889 47.4478 29.7225 47.4478 29.1264 46.8518L20.492 38.2172C19.8959 37.6212 19.8959 36.6548 20.492 36.0586C21.0881 35.4626 22.0545 35.4626 22.6506 36.0586L25.8886 39.2967L38.8402 26.3452L35.6021 23.1071C35.0061 22.5111 35.0061 21.5446 35.6021 20.9485C36.1982 20.3524 37.1647 20.3524 37.7607 20.9485L46.3953 29.583C46.9913 30.1791 46.9913 31.1456 46.3953 31.7416C45.7992 32.3377 44.8327 32.3377 44.2367 31.7416L40.9988 28.5038Z" fill="#0F0F0F"/>
<path id="Vector_4" d="M20.4924 40.3757C19.8963 39.7797 18.9299 39.7797 18.3338 40.3757C17.7377 40.9719 17.7377 41.9383 18.3338 42.5345L24.8096 49.0103C25.4057 49.6063 26.3722 49.6063 26.9682 49.0103C27.5643 48.4142 27.5643 47.4477 26.9682 46.8517L20.4924 40.3757Z" fill="#0F0F0F"/>
<path id="Vector_5" d="M19.4123 45.7722C18.8162 45.1762 17.8498 45.1762 17.2537 45.7722C16.6576 46.3684 16.6576 47.3348 17.2537 47.931L19.4123 50.0896C20.0084 50.6856 20.9748 50.6856 21.5709 50.0896C22.167 49.4934 22.167 48.527 21.5709 47.931L19.4123 45.7722Z" fill="#0F0F0F"/>
</g>
</g>
</svg>
