<svg width="68" height="68" viewBox="0 0 68 68" fill="none" xmlns="http://www.w3.org/2000/svg">
<g id="iconoir:health-shield">
<g id="Group">
<path id="Vector" d="M37.5497 40.6693H31.8935V36.7113H27.9355V31.0551H31.8935V27.0972H37.5497V31.0551H41.5077V36.7113H37.5497V40.6693Z" stroke="black" stroke-width="1.5" stroke-linecap="round" stroke-linejoin="round"/>
<path id="Vector_2" d="M22.8457 44.0622L19.6732 21.8599C19.6129 21.4373 19.7147 21.0075 19.9583 20.6569C20.2019 20.3063 20.5692 20.0609 20.9863 19.97L33.985 17.0809C34.47 16.973 34.9727 16.973 35.4576 17.0809L48.4563 19.9717C49.3215 20.1634 49.8949 20.9828 49.7694 21.8616L46.5969 44.0622C46.4781 44.902 45.7486 50 34.7213 50C23.694 50 22.9645 44.902 22.8457 44.0622Z" stroke="black" stroke-width="1.5" stroke-linecap="round" stroke-linejoin="round"/>
</g>
</g>
</svg>
