<svg width="67" height="68" viewBox="0 0 67 68" fill="none" xmlns="http://www.w3.org/2000/svg">
<g id="Frame 2147228099">
<rect y="0.626465" width="66.5467" height="66.5467" rx="17.7458" fill="#365350"/>
<g id="Group 427323609">
<path id="Vector" d="M41.5906 30.5725H44.918C48.2453 30.5725 49.909 28.9089 49.909 25.5815V22.2542C49.909 18.9269 48.2453 17.2632 44.918 17.2632H41.5906C38.2633 17.2632 36.5996 18.9269 36.5996 22.2542V25.5815C36.5996 28.9089 38.2633 30.5725 41.5906 30.5725Z" stroke="white" stroke-width="3.32734" stroke-miterlimit="10" stroke-linecap="round" stroke-linejoin="round"/>
<path id="Vector_2" d="M21.6277 50.5369H24.9551C28.2824 50.5369 29.9461 48.8732 29.9461 45.5459V42.2186C29.9461 38.8912 28.2824 37.2275 24.9551 37.2275H21.6277C18.3004 37.2275 16.6367 38.8912 16.6367 42.2186V45.5459C16.6367 48.8732 18.3004 50.5369 21.6277 50.5369Z" stroke="white" stroke-width="3.32734" stroke-miterlimit="10" stroke-linecap="round" stroke-linejoin="round"/>
<path id="Vector_3" d="M23.2914 30.5725C26.9667 30.5725 29.9461 27.5931 29.9461 23.9179C29.9461 20.2426 26.9667 17.2632 23.2914 17.2632C19.6161 17.2632 16.6367 20.2426 16.6367 23.9179C16.6367 27.5931 19.6161 30.5725 23.2914 30.5725Z" stroke="white" stroke-width="3.32734" stroke-miterlimit="10" stroke-linecap="round" stroke-linejoin="round"/>
<path id="Vector_4" d="M43.2543 50.5369C46.9295 50.5369 49.909 47.5574 49.909 43.8822C49.909 40.207 46.9295 37.2275 43.2543 37.2275C39.5791 37.2275 36.5996 40.207 36.5996 43.8822C36.5996 47.5574 39.5791 50.5369 43.2543 50.5369Z" stroke="white" stroke-width="3.32734" stroke-miterlimit="10" stroke-linecap="round" stroke-linejoin="round"/>
</g>
</g>
</svg>
