<svg width="68" height="68" viewBox="0 0 68 68" fill="none" xmlns="http://www.w3.org/2000/svg">
<g id="Frame 2147228100">
<g id="Group 427323605">
<path id="Vector" d="M34.0316 50.5364C33.4749 50.5412 32.9278 50.3924 32.4508 50.1067L26.4911 46.6392C24.26 45.3979 22.3978 43.5926 21.0927 41.4059C19.7877 39.2192 19.086 36.7285 19.0586 34.1855V24.711C19.0589 24.0725 19.2557 23.4494 19.6225 22.9256C19.9894 22.4017 20.5087 22.0022 21.1106 21.7807L32.9516 17.4537C33.649 17.1997 34.4142 17.1997 35.1116 17.4537L46.9526 21.7807C47.5545 22.0022 48.0738 22.4017 48.4407 22.9256C48.8076 23.4494 49.0044 24.0725 49.0046 24.711V34.1855C48.9772 36.7285 48.2756 39.2192 46.9705 41.4059C45.6654 43.5926 43.8032 45.3979 41.5721 46.6392L35.6124 50.1067C35.1355 50.3924 34.5883 50.5412 34.0316 50.5364ZM34.0316 19.71C33.9537 19.6959 33.8739 19.6959 33.796 19.71L21.955 24.0565C21.8216 24.1057 21.7072 24.1953 21.6279 24.3128C21.5486 24.4302 21.5085 24.5696 21.5132 24.711V34.1855C21.5417 36.3014 22.1314 38.3724 23.2228 40.1887C24.3141 42.0051 25.8683 43.5025 27.7282 44.5294L33.688 48.0066C33.7934 48.0639 33.9115 48.0939 34.0316 48.0939C34.1517 48.0939 34.2699 48.0639 34.3752 48.0066L40.335 44.5294C42.1949 43.5025 43.7491 42.0051 44.8405 40.1887C45.9318 38.3724 46.5216 36.3014 46.55 34.1855V24.711C46.5506 24.5729 46.5086 24.4379 46.4296 24.3243C46.3505 24.2108 46.2384 24.1241 46.1082 24.0761L34.2672 19.749C34.1918 19.7218 34.1119 19.7086 34.0316 19.71Z" fill="black"/>
<path id="Vector_2" d="M32.4709 38.2775C32.178 38.2755 31.8945 38.174 31.6669 37.9896L27.4289 34.4164C27.1762 34.2045 27.018 33.9009 26.9891 33.5723C26.9603 33.2438 27.0631 32.9173 27.275 32.6646C27.4869 32.4118 27.7905 32.2537 28.1191 32.2248C28.4476 32.196 28.7741 32.2988 29.0268 32.5107L32.3518 35.3097L38.029 29.0566C38.2501 28.8118 38.5594 28.6648 38.8889 28.6481C39.2183 28.6313 39.5409 28.7462 39.7858 28.9673C40.0306 29.1884 40.1775 29.4977 40.1943 29.8272C40.211 30.1567 40.0962 30.4793 39.8751 30.7241L33.4435 37.8705C33.3204 38.0046 33.1697 38.1103 33.0018 38.1806C32.8339 38.2508 32.6528 38.2839 32.4709 38.2775Z" fill="black"/>
</g>
</g>
</svg>
