<svg width="68" height="68" viewBox="0 0 68 68" fill="none" xmlns="http://www.w3.org/2000/svg">
<g id="food-2-svgrepo-com 1">
<g id="Group">
<path id="Vector" d="M37.5493 46.1001H19.5766C18.4743 46.1001 17.5801 46.8115 17.5801 47.6898V47.7361C17.5801 48.6156 18.474 49.3271 19.5766 49.3271H37.5493C38.6518 49.3271 39.5463 48.6157 39.5463 47.7361V47.6898C39.5462 46.8115 38.6525 46.1001 37.5493 46.1001Z" fill="black"/>
<path id="Vector_2" d="M16.9735 43.9587C17.0324 43.978 17.0843 44.0037 17.1397 44.0404C17.2362 44.1041 17.3441 44.2059 17.4687 44.3482C17.5618 44.4532 17.6635 44.5793 17.782 44.7145C17.96 44.9168 18.1782 45.1466 18.4851 45.3333C18.6379 45.4261 18.8131 45.5053 19.0044 45.5593C19.1959 45.6134 19.4041 45.6417 19.6215 45.6417C19.8735 45.6424 20.1127 45.6038 20.3294 45.5316C20.519 45.4685 20.689 45.3816 20.8372 45.283C21.0966 45.1099 21.2888 44.909 21.4488 44.7287C21.5682 44.5922 21.6706 44.4659 21.7653 44.3591C21.9062 44.1975 22.0247 44.0861 22.1316 44.0223C22.1864 43.9902 22.2373 43.9663 22.2984 43.9489C22.3592 43.9328 22.4301 43.9206 22.526 43.9206C22.637 43.9206 22.7146 43.9361 22.7822 43.9586C22.8409 43.9779 22.893 44.0036 22.9487 44.0403C23.0453 44.1041 23.1531 44.2058 23.277 44.3481C23.3704 44.4531 23.4721 44.5792 23.5909 44.7145C23.769 44.9167 23.9869 45.1465 24.294 45.3333C24.447 45.4266 24.6215 45.5052 24.8137 45.5593C25.0055 45.6133 25.2132 45.6416 25.4304 45.6416C25.6826 45.6423 25.9223 45.6037 26.1381 45.5315C26.3281 45.4684 26.498 45.3815 26.6461 45.2829C26.9059 45.1098 27.0974 44.9089 27.2572 44.7286C27.378 44.5921 27.4799 44.4659 27.5742 44.359C27.715 44.1974 27.8341 44.086 27.9412 44.0223C27.995 43.9901 28.0465 43.9662 28.1077 43.9489C28.1682 43.9327 28.2397 43.9205 28.335 43.9205C28.4461 43.9205 28.5239 43.936 28.5909 43.9585C28.6499 43.9778 28.702 44.0035 28.7576 44.0402C28.8542 44.104 28.9621 44.2058 29.086 44.348C29.18 44.453 29.2815 44.5792 29.4 44.7144C29.578 44.9166 29.7959 45.1464 30.1033 45.3332C30.2563 45.4266 30.4304 45.5051 30.6226 45.5592C30.8148 45.6133 31.0221 45.6416 31.2395 45.6416C31.4918 45.6422 31.731 45.6036 31.9477 45.5315C32.137 45.4683 32.3073 45.3815 32.4554 45.2829C32.7149 45.1097 32.9074 44.9088 33.0668 44.7285C33.1866 44.592 33.2895 44.4658 33.3829 44.359C33.5238 44.1974 33.643 44.0859 33.7509 44.0222C33.804 43.99 33.8562 43.9662 33.9166 43.9488C33.9772 43.9326 34.0487 43.9204 34.1443 43.9204C34.2553 43.9204 34.3329 43.9359 34.4006 43.9584C34.4598 43.9777 34.5117 44.0034 34.567 44.0401C34.6638 44.1039 34.7714 44.2057 34.8963 44.3479C34.9897 44.4529 35.0911 44.5797 35.2102 44.7143C35.3873 44.9165 35.6062 45.1463 35.913 45.3331C36.0659 45.4265 36.2407 45.505 36.4329 45.5591C36.6245 45.6132 36.8324 45.6421 37.0494 45.6421C37.3018 45.6421 37.5417 45.6035 37.7573 45.5314C37.9466 45.4682 38.1173 45.3814 38.2653 45.2828C38.5251 45.1096 38.7173 44.9087 38.877 44.7284C38.9961 44.5919 39.0991 44.4657 39.1931 44.3589C39.334 44.1973 39.4532 44.0858 39.5605 44.0221C39.6142 43.9899 39.6658 43.9661 39.7268 43.9494C39.7881 43.9326 39.8589 43.9203 39.9548 43.9203C40.3502 43.9203 40.6714 43.5991 40.6714 43.2031C40.6714 42.8072 40.3502 42.4858 39.9548 42.4858C39.7021 42.4858 39.463 42.5245 39.2462 42.5965C39.0566 42.659 38.886 42.7466 38.7385 42.8445C38.4791 43.0176 38.2868 43.2179 38.1269 43.3994C38.0074 43.5353 37.9044 43.6621 37.8104 43.7684C37.67 43.93 37.5503 44.0413 37.4434 44.1057C37.3886 44.1379 37.3377 44.1612 37.2773 44.1785C37.2161 44.1959 37.1446 44.2069 37.0493 44.2069C36.9386 44.2069 36.8604 44.192 36.7928 44.1702C36.7342 44.1508 36.6824 44.1238 36.6263 44.0872C36.5297 44.0241 36.4216 43.9211 36.2977 43.7794C36.2043 43.6744 36.1022 43.5489 35.9844 43.4124C35.8061 43.2115 35.5884 42.9809 35.281 42.7949C35.1274 42.7015 34.9533 42.623 34.761 42.5676C34.5689 42.5142 34.3615 42.4858 34.1442 42.4858C33.8918 42.4858 33.6527 42.5238 33.4359 42.5965C33.2466 42.659 33.076 42.7466 32.9282 42.8445C32.6688 43.0176 32.4766 43.2179 32.3169 43.3994C32.1965 43.5353 32.0941 43.6621 32.0001 43.7684C31.8591 43.93 31.7406 44.0413 31.6328 44.1057C31.5787 44.1379 31.5274 44.1612 31.467 44.1785C31.4064 44.1959 31.335 44.2069 31.2394 44.2069C31.1283 44.2069 31.0501 44.192 30.9831 44.1702C30.9243 44.1508 30.8721 44.1238 30.8164 44.0872C30.7201 44.0241 30.6123 43.9211 30.488 43.7794C30.3946 43.6744 30.2932 43.5489 30.1747 43.4137C29.9963 43.2115 29.7788 42.981 29.4713 42.7949C29.3177 42.7015 29.144 42.623 28.9514 42.5676C28.7599 42.5142 28.5515 42.4853 28.3349 42.4858C28.0828 42.4852 27.843 42.5238 27.6266 42.5965C27.4373 42.659 27.2667 42.7459 27.1186 42.8445C26.8591 43.0176 26.6669 43.2179 26.5072 43.3994C26.3874 43.5353 26.2854 43.6621 26.1911 43.7684C26.0504 43.93 25.9309 44.0413 25.8237 44.1057C25.77 44.1379 25.7185 44.1612 25.6579 44.1785C25.5961 44.1952 25.5253 44.2069 25.4304 44.2069C25.3193 44.2069 25.2411 44.192 25.1734 44.1702C25.1148 44.1508 25.0627 44.1238 25.0077 44.0872C24.9105 44.0241 24.8032 43.9211 24.6784 43.7794C24.585 43.6737 24.4839 43.5482 24.3648 43.4137C24.1874 43.2115 23.9691 42.981 23.662 42.7949C23.5091 42.7015 23.3336 42.623 23.1424 42.5676C22.9508 42.5142 22.7432 42.4853 22.5259 42.4858C22.2732 42.4852 22.0344 42.5238 21.817 42.5965C21.6277 42.659 21.4584 42.7459 21.3102 42.8445C21.0505 43.0176 20.8582 43.2179 20.6986 43.3994C20.5785 43.5346 20.4765 43.6621 20.3825 43.7684C20.2415 43.93 20.1217 44.0413 20.0155 44.1057C19.9607 44.1379 19.9092 44.1612 19.8487 44.1785C19.7881 44.1952 19.7166 44.2062 19.6214 44.2069C19.5103 44.2062 19.4324 44.192 19.3648 44.1702C19.3063 44.1508 19.2545 44.1238 19.1984 44.0872C19.1025 44.0241 18.994 43.9217 18.8703 43.7794C18.7767 43.6737 18.6752 43.5482 18.5568 43.413C18.3788 43.2115 18.1605 42.9817 17.8537 42.7942C17.7009 42.7015 17.526 42.623 17.3342 42.5676C17.1422 42.5142 16.9346 42.4853 16.717 42.4858C16.321 42.4858 16 42.8072 16 43.2031C16 43.5991 16.321 43.9203 16.717 43.9203C16.8283 43.9206 16.9062 43.9361 16.9735 43.9587Z" fill="black"/>
<path id="Vector_3" d="M45.0444 22.5038L46.3173 16.6468L50.9267 13.9702L49.7831 12L44.3045 15.1807L42.7125 22.5038H28.3862L28.4734 23.6428L29.142 32.3303C28.8902 32.3181 28.6365 32.3117 28.3812 32.3117C22.3982 32.3117 17.4727 35.7332 16.8349 39.5481C16.812 39.6859 16.7943 39.7219 16.7811 39.7605C16.7699 39.7978 16.7634 39.8353 16.7634 39.9755C16.7634 40.7926 17.2187 41.2234 18.0083 41.2234H38.754C39.5425 41.2234 39.9986 40.7926 39.9986 39.9755C39.9986 39.6968 39.9738 39.8223 39.9266 39.5481C39.6082 37.6371 38.2119 35.8246 36.1471 34.4905C35.4766 34.0572 34.7361 33.6773 33.939 33.358C33.109 33.0271 32.2185 32.7643 31.2817 32.5854L30.67 24.6183H49.0499L47.0259 50.9778H39.7639C39.5102 50.6669 39.1374 50.4821 38.6156 50.4821H32.6566H30.5347H18.1513C16.9638 50.4821 16.5488 51.4465 16.5488 52.6338V52.8495C16.5488 54.0368 17.512 55 18.7 55H38.0624C39.1673 55 40.0796 54.1669 40.2003 53.0929H48.9854L51.3345 22.5038H45.0444ZM22.0239 36.7274C21.7083 36.7274 21.4514 36.4704 21.4514 36.1537C21.4514 35.8363 21.7082 35.5788 22.0239 35.5788C22.3416 35.5788 22.5985 35.8363 22.5985 36.1537C22.5985 36.4704 22.3417 36.7274 22.0239 36.7274ZM24.3199 35.0057C24.0024 35.0057 23.7455 34.7488 23.7455 34.4319C23.7455 34.1145 24.0024 33.8569 24.3199 33.8569C24.6369 33.8569 24.8942 34.1144 24.8942 34.4319C24.8942 34.7488 24.6369 35.0057 24.3199 35.0057ZM26.3274 36.7274C26.0103 36.7274 25.7531 36.4704 25.7531 36.1537C25.7531 35.8363 26.0103 35.5788 26.3274 35.5788C26.6451 35.5788 26.902 35.8363 26.902 36.1537C26.9021 36.4704 26.6452 36.7274 26.3274 36.7274ZM28.0491 34.2884C27.732 34.2884 27.4744 34.0315 27.4744 33.7147C27.4744 33.3986 27.732 33.1416 28.0491 33.1416C28.3662 33.1416 28.6237 33.3986 28.6237 33.7147C28.6237 34.0315 28.3662 34.2884 28.0491 34.2884ZM34.9332 35.7223C35.251 35.7223 35.5078 35.9792 35.5078 36.2966C35.5078 36.6134 35.2509 36.871 34.9332 36.871C34.6177 36.871 34.3608 36.6134 34.3608 36.2966C34.3608 35.9792 34.6177 35.7223 34.9332 35.7223ZM32.0645 33.8506C32.3822 33.8506 32.6391 34.1075 32.6391 34.4236C32.6391 34.7423 32.3823 34.9992 32.0645 34.9992C31.7477 34.9992 31.4921 34.7423 31.4921 34.4236C31.4921 34.1075 31.7477 33.8506 32.0645 33.8506ZM30.7745 36.2966C30.7745 36.6134 30.5174 36.871 30.1999 36.871C29.8845 36.871 29.6275 36.6134 29.6275 36.2966C29.6275 35.9791 29.8844 35.7223 30.1999 35.7223C30.5174 35.7223 30.7745 35.9792 30.7745 36.2966Z" fill="black"/>
</g>
</g>
</svg>
