<svg width="69" height="68" viewBox="0 0 69 68" fill="none" xmlns="http://www.w3.org/2000/svg">
<g id="Frame 2147228100">
<g id="Group 427323604">
<path id="Vector" d="M44.1985 33.901H42.8114C41.3755 33.901 40.6576 33.901 40.0624 34.2332C39.4673 34.5654 39.0978 35.1722 38.3591 36.386L38.3057 36.4739C37.6175 37.6046 37.2733 38.17 36.7728 38.1606C36.2721 38.1514 35.9496 37.5737 35.3051 36.4183L32.3848 31.184C31.7838 30.1067 31.4833 29.568 31.0032 29.5424C30.5233 29.5169 30.1657 30.0205 29.4505 31.0277L28.9606 31.7177C28.201 32.7875 27.8211 33.3224 27.2576 33.6116C26.6941 33.901 26.0317 33.901 24.707 33.901H23.4297" stroke="black" stroke-width="2.21822" stroke-linecap="round"/>
<path id="Vector_2" d="M33.8124 22.8088L32.862 23.6804C33.1076 23.9406 33.4519 24.0884 33.8124 24.0884C34.1729 24.0884 34.5171 23.9406 34.7627 23.6804L33.8124 22.8088ZM29.3743 45.4854C26.865 43.4681 23.935 40.8228 21.6433 37.9274C19.3269 35.0008 17.8031 31.9938 17.8031 29.2269H15.207C15.207 32.8539 17.1615 36.4251 19.5965 39.5017C22.0562 42.6094 25.1506 45.3922 27.7336 47.4688L29.3743 45.4854ZM17.8031 29.2269C17.8031 24.5692 19.9802 21.4537 22.7368 20.3231C25.4581 19.207 29.2309 19.8332 32.862 23.6804L34.7627 21.9371C30.6059 17.5329 25.725 16.3256 21.7396 17.9601C17.7896 19.5802 15.207 23.7994 15.207 29.2269H17.8031ZM39.8912 47.4688C42.4742 45.3924 45.5685 42.6094 48.0283 39.5017C50.4632 36.4253 52.4177 32.8539 52.4177 29.2268H49.8216C49.8216 31.9938 48.2977 35.0008 45.9815 37.9274C43.6898 40.8228 40.7599 43.4681 38.2505 45.4854L39.8912 47.4688ZM52.4177 29.2268C52.4177 23.7992 49.8351 19.58 45.8851 17.96C41.8997 16.3255 37.0189 17.533 32.862 21.9371L34.7627 23.6804C38.394 19.8332 42.1666 19.2069 44.888 20.323C47.6446 21.4535 49.8216 24.569 49.8216 29.2268H52.4177ZM27.7336 47.4688C29.9333 49.2371 31.4603 50.5365 33.8124 50.5365V47.9773C32.5637 47.9773 31.7852 47.4234 29.3743 45.4854L27.7336 47.4688ZM38.2505 45.4854C35.8396 47.4234 35.0613 47.9773 33.8124 47.9773V50.5365C36.1644 50.5365 37.6915 49.2371 39.8912 47.4688L38.2505 45.4854Z" fill="black"/>
</g>
</g>
</svg>
