<svg width="19" height="17" viewBox="0 0 19 17" fill="none" xmlns="http://www.w3.org/2000/svg">
<path id="Vector" d="M9.43034 2.93746L8.97857 3.35873C9.09532 3.48447 9.25896 3.5559 9.43034 3.5559C9.60171 3.5559 9.76535 3.48447 9.8821 3.35873L9.43034 2.93746ZM7.32061 13.8968C6.12776 12.9219 4.73493 11.6435 3.64553 10.2442C2.54442 8.82975 1.82004 7.37649 1.82004 6.03929H0.585938C0.585938 7.79217 1.51502 9.51812 2.67256 11.005C3.8418 12.5069 5.31281 13.8518 6.54069 14.8554L7.32061 13.8968ZM1.82004 6.03929C1.82004 3.78827 2.85496 2.28254 4.16537 1.73615C5.45897 1.19676 7.25243 1.49939 8.97857 3.35873L9.8821 2.51617C7.90606 0.387695 5.58585 -0.195801 3.69133 0.594156C1.81361 1.3771 0.585938 3.4162 0.585938 6.03929H1.82004ZM12.32 14.8554C13.5479 13.8519 15.0188 12.5069 16.1881 11.005C17.3456 9.5182 18.2747 7.79217 18.2747 6.03926H17.0406C17.0406 7.37649 16.3162 8.82975 15.2151 10.2442C14.1258 11.6435 12.733 12.9219 11.5401 13.8968L12.32 14.8554ZM18.2747 6.03926C18.2747 3.41612 17.0471 1.37702 15.1693 0.59409C13.2748 -0.195842 10.9546 0.387704 8.97857 2.51617L9.8821 3.35873C11.6083 1.49939 13.4017 1.19672 14.6953 1.73609C16.0057 2.28246 17.0406 3.78817 17.0406 6.03926H18.2747ZM6.54069 14.8554C7.58634 15.71 8.31224 16.338 9.43034 16.338V15.1012C8.83673 15.1012 8.46667 14.8335 7.32061 13.8968L6.54069 14.8554ZM11.5401 13.8968C10.394 14.8335 10.024 15.1012 9.43034 15.1012V16.338C10.5484 16.338 11.2743 15.71 12.32 14.8554L11.5401 13.8968Z" fill="white"/>
</svg>
