<svg width="24" height="25" viewBox="0 0 24 25" fill="none" xmlns="http://www.w3.org/2000/svg">
<g id="weui:location-outlined">
<path id="Vector" fill-rule="evenodd" clip-rule="evenodd" d="M12.247 21.0525C13.3971 20.0089 14.4615 18.8746 15.43 17.6605C17.47 15.0975 18.711 12.5705 18.795 10.3235C18.8282 9.41029 18.6771 8.49975 18.3505 7.64628C18.024 6.7928 17.5288 6.01389 16.8945 5.35608C16.2602 4.69828 15.4998 4.17506 14.6588 3.8177C13.8177 3.46033 12.9133 3.27615 11.9995 3.27615C11.0857 3.27615 10.1813 3.46033 9.34022 3.8177C8.49918 4.17506 7.73881 4.69828 7.10451 5.35608C6.4702 6.01389 5.975 6.7928 5.64846 7.64628C5.32192 8.49975 5.17076 9.41029 5.204 10.3235C5.289 12.5705 6.531 15.0975 8.57 17.6605C9.53846 18.8746 10.6029 20.0089 11.753 21.0525C11.8637 21.1525 11.946 21.2252 12 21.2705L12.247 21.0525ZM11.262 22.2175C11.262 22.2175 4 16.1015 4 10.0835C4 7.96176 4.84285 5.92693 6.34315 4.42664C7.84344 2.92635 9.87827 2.0835 12 2.0835C14.1217 2.0835 16.1566 2.92635 17.6569 4.42664C19.1571 5.92693 20 7.96176 20 10.0835C20 16.1015 12.738 22.2175 12.738 22.2175C12.334 22.5895 11.669 22.5855 11.262 22.2175ZM12 12.8835C12.7426 12.8835 13.4548 12.5885 13.9799 12.0634C14.505 11.5383 14.8 10.8261 14.8 10.0835C14.8 9.34089 14.505 8.6287 13.9799 8.1036C13.4548 7.5785 12.7426 7.2835 12 7.2835C11.2574 7.2835 10.5452 7.5785 10.0201 8.1036C9.495 8.6287 9.2 9.34089 9.2 10.0835C9.2 10.8261 9.495 11.5383 10.0201 12.0634C10.5452 12.5885 11.2574 12.8835 12 12.8835ZM12 14.0835C10.9391 14.0835 9.92172 13.6621 9.17157 12.9119C8.42143 12.1618 8 11.1444 8 10.0835C8 9.02263 8.42143 8.00521 9.17157 7.25507C9.92172 6.50492 10.9391 6.0835 12 6.0835C13.0609 6.0835 14.0783 6.50492 14.8284 7.25507C15.5786 8.00521 16 9.02263 16 10.0835C16 11.1444 15.5786 12.1618 14.8284 12.9119C14.0783 13.6621 13.0609 14.0835 12 14.0835Z" fill="#355350"/>
</g>
</svg>
