<svg width="25" height="24" viewBox="0 0 25 24" fill="none" xmlns="http://www.w3.org/2000/svg">
<g id="vuesax/linear/notification-bing">
<g id="notification-bing">
<path id="Vector" d="M12.1309 6.94043V10.2704" stroke="#0B0C15" stroke-width="1.5" stroke-miterlimit="10" stroke-linecap="round"/>
<path id="Vector_2" d="M12.1517 2.5C8.47173 2.5 5.49173 5.48 5.49173 9.16V11.26C5.49173 11.94 5.21173 12.96 4.86173 13.54L3.59173 15.66C2.81173 16.97 3.35173 18.43 4.79173 18.91C9.57173 20.5 14.7417 20.5 19.5217 18.91C20.8717 18.46 21.4517 16.88 20.7217 15.66L19.4517 13.54C19.1017 12.96 18.8217 11.93 18.8217 11.26V9.16C18.8117 5.5 15.8117 2.5 12.1517 2.5Z" stroke="#0B0C15" stroke-width="1.5" stroke-miterlimit="10" stroke-linecap="round"/>
<path id="Vector_3" d="M15.4608 19.3203C15.4608 21.1503 13.9608 22.6503 12.1308 22.6503C11.2208 22.6503 10.3808 22.2703 9.78078 21.6703C9.18078 21.0703 8.80078 20.2303 8.80078 19.3203" stroke="#0B0C15" stroke-width="1.5" stroke-miterlimit="10"/>
</g>
</g>
</svg>
