<svg width="21" height="23" viewBox="0 0 21 23" fill="none" xmlns="http://www.w3.org/2000/svg">
<g id="Frame 2147228460">
<path id="Vector 2" fill-rule="evenodd" clip-rule="evenodd" d="M10.2083 2.26852C5.82329 2.26852 2.26852 5.82329 2.26852 10.2083C2.26852 14.5934 5.82329 18.1481 10.2083 18.1481C14.5934 18.1481 18.1481 14.5934 18.1481 10.2083C18.1481 5.82329 14.5934 2.26852 10.2083 2.26852ZM0 10.2083C0 4.57043 4.57043 0 10.2083 0C15.8462 0 20.4167 4.57043 20.4167 10.2083C20.4167 15.8462 15.8462 20.4167 10.2083 20.4167C4.57043 20.4167 0 15.8462 0 10.2083Z" fill="#355350"/>
<path id="Vector 1" fill-rule="evenodd" clip-rule="evenodd" d="M16.049 17.5085C16.492 17.0655 17.2101 17.0655 17.6531 17.5085L20.3753 20.2307C20.8183 20.6737 20.8183 21.3918 20.3753 21.8348C19.9324 22.2778 19.2142 22.2778 18.7712 21.8348L16.049 19.1126C15.6061 18.6696 15.6061 17.9514 16.049 17.5085Z" fill="#355350"/>
</g>
</svg>
