<svg width="24" height="23" viewBox="0 0 24 23" fill="none" xmlns="http://www.w3.org/2000/svg">
<path id="Star 3" d="M9.95539 2.18932C10.4861 0.555946 12.7969 0.555946 13.3276 2.18932L14.8258 6.80026C15.0631 7.53073 15.7439 8.0253 16.5119 8.0253H21.3601C23.0776 8.0253 23.7917 10.223 22.4022 11.2325L18.4799 14.0822C17.8585 14.5336 17.5985 15.3339 17.8359 16.0643L19.3341 20.6753C19.8648 22.3087 17.9953 23.6669 16.6059 22.6574L12.6836 19.8077C12.0622 19.3563 11.2208 19.3563 10.5994 19.8077L6.67713 22.6574C5.2877 23.6669 3.41823 22.3087 3.94894 20.6753L5.44713 16.0643C5.68447 15.3339 5.42446 14.5336 4.80309 14.0822L0.880788 11.2325C-0.508646 10.223 0.205429 8.0253 1.92286 8.0253H6.77109C7.53915 8.0253 8.21986 7.53073 8.45721 6.80026L9.95539 2.18932Z" fill="#FFAE00"/>
</svg>
